HIERARCHY
ROOT SpineBase
{
  OFFSET 0.000000 0.000000 0.000000
  CHANNELS 6 Xposition Yposition Zposition Zrotation Xrotation Yrotation
  JOINT SpineMid
  {
    OFFSET 0.000000 31.506734 0.000000
    CHANNELS 3 Zrotation Xrotation Yrotation
    JOINT SpineShoulder
    {
      OFFSET -0.064048 23.351531 -0.815454
      CHANNELS 3 Zrotation Xrotation Yrotation
      JOINT Neck
      {
        OFFSET -0.043750 7.708144 -0.611061
        CHANNELS 3 Zrotation Xrotation Yrotation
        JOINT Head
        {
          OFFSET 4.380690 13.392302 -0.185266
          CHANNELS 3 Zrotation Xrotation Yrotation
          End Site
          {
            OFFSET 0 0 0
          }
        }
      }
      JOINT ShoulderLeft
      {
        OFFSET -15.420857 -3.102480 -6.699648
        CHANNELS 3 Zrotation Xrotation Yrotation
        JOINT ElbowLeft
        {
          OFFSET -5.080357 -21.484809 -2.427155
          CHANNELS 3 Zrotation Xrotation Yrotation
          JOINT WristLeft
          {
            OFFSET 22.400368 -1.011996 -13.643814
            CHANNELS 3 Zrotation Xrotation Yrotation
            JOINT HandLeft
            {
              OFFSET 6.027721 -0.153784 -3.308969
              CHANNELS 3 Zrotation Xrotation Yrotation
              JOINT HandTipLeft
              {
                OFFSET 4.188705 0.593834 -3.959093
                CHANNELS 3 Zrotation Xrotation Yrotation
                End Site
                {
                  OFFSET 0 0 0
                }
              }
              JOINT ThumbLeft
              {
                OFFSET 2.399016 -4.716341 -0.868140
                CHANNELS 3 Zrotation Xrotation Yrotation
                End Site
                {
                  OFFSET 0 0 0
                }
              }
            }
          }
        }
      }
      JOINT ShoulderRight
      {
        OFFSET 16.875162 -3.955838 6.663012
        CHANNELS 3 Zrotation Xrotation Yrotation
        JOINT ElbowRight
        {
          OFFSET -4.413898 -18.894411 -20.419037
          CHANNELS 3 Zrotation Xrotation Yrotation
          JOINT WristRight
          {
            OFFSET 2.144959 -11.066763 -17.599619
            CHANNELS 3 Zrotation Xrotation Yrotation
            JOINT HandRight
            {
              OFFSET -0.801046 2.361950 1.171990
              CHANNELS 3 Zrotation Xrotation Yrotation
              JOINT HandTipRight
              {
                OFFSET -0.802957 3.157628 -2.401284
                CHANNELS 3 Zrotation Xrotation Yrotation
                End Site
                {
                  OFFSET 0 0 0
                }
              }
              JOINT ThumbRight
              {
                OFFSET -0.569673 -3.429376 1.403616
                CHANNELS 3 Zrotation Xrotation Yrotation
                End Site
                {
                  OFFSET 0 0 0
                }
              }
            }
          }
        }
      }
    }
  }
  JOINT HipLeft
  {
    OFFSET -7.394120 1.421697 -5.884183
    CHANNELS 3 Zrotation Xrotation Yrotation
    JOINT KneeLeft
    {
      OFFSET -5.974299 -31.462671 2.918056
      CHANNELS 3 Zrotation Xrotation Yrotation
      JOINT AnkleLeft
      {
        OFFSET -2.256371 -32.824991 11.819924
        CHANNELS 3 Zrotation Xrotation Yrotation
        JOINT FootLeft
        {
          OFFSET 4.091927 -3.551031 -13.375328
          CHANNELS 3 Zrotation Xrotation Yrotation
          End Site
          {
            OFFSET 0 0 0
          }
        }
      }
    }
  }
  JOINT HipRight
  {
    OFFSET 6.985792 0.106981 -1.552890
    CHANNELS 3 Zrotation Xrotation Yrotation
    JOINT KneeRight
    {
      OFFSET -0.697985 -31.814830 5.325182
      CHANNELS 3 Zrotation Xrotation Yrotation
      JOINT AnkleRight
      {
        OFFSET -3.979195 -30.607923 11.511546
        CHANNELS 3 Zrotation Xrotation Yrotation
        JOINT FootRight
        {
          OFFSET 3.917803 -3.578877 -13.379593
          CHANNELS 3 Zrotation Xrotation Yrotation
          End Site
          {
            OFFSET 0 0 0
          }
        }
      }
    }
  }
}
MOTION
Frames: 15
Frame Time: 0.033333
17.992412 69.674513 333.741723 0.374692 -0.475491 -22.232511 -0.526752 0.298358 22.235438 -0.000000 0.000000 0.000000 -2.731566 7.774644 -2.382496 0.000000 0.000000 0.000000 -5.939375 -3.613903 1.327261 -49.682531 -25.509516 -9.231422 -9.883611 13.513593 -21.903362 14.116420 -18.832244 9.645576 0.000000 0.000000 0.000000 0.000000 0.000000 0.000000 20.757467 -50.364257 -0.504240 102.799799 56.224429 -143.870872 -137.526214 -72.652177 -75.436945 -6.628039 70.339415 -3.427342 0.000000 0.000000 0.000000 0.000000 0.000000 0.000000 0.537799 -1.388473 22.650344 0.339541 0.051592 -0.034599 0.443377 0.981214 -5.789904 0.000000 0.000000 0.000000 0.570873 -0.526626 22.381073 -0.111994 -0.244273 0.265228 0.557513 0.485927 -5.827973 0.000000 0.000000 0.000000
17.941307 69.653093 333.765110 0.271301 -0.646172 -23.161336 -0.503603 0.487369 23.165008 -0.000000 0.000000 0.000000 -3.294617 8.181998 -2.469640 0.000000 0.000000 0.000000 -5.767334 -3.592267 1.309779 -52.301573 -25.717063 -11.305528 -8.120718 12.694696 -18.950160 12.197820 -18.099703 6.385772 0.000000 0.000000 0.000000 0.000000 0.000000 0.000000 22.783867 -51.729004 -1.818454 107.712427 56.473975 -151.084077 -156.040153 -71.377238 -97.081746 -28.775339 78.463642 25.386152 0.000000 0.000000 0.000000 0.000000 0.000000 0.000000 0.607272 -1.535562 23.631582 0.472625 0.429504 -0.092228 0.494671 0.812595 -6.185124 0.000000 0.000000 0.000000 0.626533 -0.468539 23.304586 0.008676 0.225543 0.252853 0.537750 0.036585 -6.204550 0.000000 0.000000 0.000000
17.880299 69.631337 333.756708 0.158691 -0.751373 -24.395421 -0.113956 -0.119777 24.395392 -0.169234 -0.013588 -0.014448 -3.769847 9.368087 -2.461019 0.000000 0.000000 0.000000 -5.354781 -2.584875 1.351799 -54.235320 -25.750412 -13.140205 -6.893450 11.802094 -16.485609 10.684756 -18.299705 4.435077 0.000000 0.000000 0.000000 0.000000 0.000000 0.000000 23.524178 -51.019700 -3.679701 115.118458 56.212694 -158.493667 -157.092795 -69.457779 -101.354894 -30.085206 82.031549 38.804789 0.000000 0.000000 0.000000 0.000000 0.000000 0.000000 0.776186 -1.899550 24.951138 0.522584 0.940674 -0.216198 0.726949 0.677200 -6.832236 0.000000 0.000000 0.000000 0.601912 -0.410901 24.516833 0.314869 0.472458 0.309240 0.491272 -0.287996 -6.921993 0.000000 0.000000 0.000000
17.732075 69.572368 333.870088 -0.089367 -1.053849 -24.053995 -0.050041 0.000242 24.046064 -0.251314 -0.232817 -0.028754 -3.862599 10.042065 -2.454332 0.000000 0.000000 0.000000 -5.072686 -2.348657 1.442873 -55.791692 -25.681539 -14.251516 -6.504785 11.180629 -14.828003 11.106803 -17.925023 4.007051 0.000000 0.000000 0.000000 0.000000 0.000000 0.000000 23.709696 -49.897815 -4.972903 121.178447 53.978181 -164.161300 -162.552200 -67.385239 -110.951136 -68.823382 84.460216 87.296026 0.000000 0.000000 0.000000 0.000000 0.000000 0.000000 0.941261 -1.790103 24.650917 0.593943 1.484829 -0.279475 0.554546 0.406518 -6.256258 0.000000 0.000000 0.000000 0.655798 -0.287018 24.150196 0.688485 0.943319 0.369915 0.111240 -0.545950 -6.403529 0.000000 0.000000 0.000000
17.554206 69.526304 333.919791 -0.376737 -1.248037 -23.602958 0.090159 -0.094012 23.582701 -0.373556 -0.320636 -0.047615 -3.417430 9.973603 -2.271515 0.000000 0.000000 0.000000 -4.896758 -1.922275 1.519383 -57.658090 -25.646508 -16.000440 -5.491865 10.833249 -13.177398 12.225378 -16.817433 4.019183 0.000000 0.000000 0.000000 0.000000 0.000000 0.000000 22.690065 -46.786897 -6.129643 125.565675 54.105456 -165.264686 -154.847720 -69.360673 -106.950797 -59.750063 84.997747 84.889098 0.000000 0.000000 0.000000 0.000000 0.000000 0.000000 1.181398 -1.704693 24.229497 0.776576 1.858720 -0.282252 0.200883 0.356675 -5.406850 0.000000 0.000000 0.000000 0.688739 -0.238755 23.657511 1.198866 1.259223 0.474835 -0.365635 -0.587629 -5.590374 0.000000 0.000000 0.000000
17.326533 69.421873 334.189890 -0.705373 -1.844908 -21.156966 0.271373 -0.137588 21.118080 -0.434623 -0.598108 -0.063091 -2.356040 9.613887 -1.883587 0.000000 0.000000 0.000000 -4.755774 -1.939314 1.824370 -58.637073 -25.119290 -16.120288 -4.139411 11.490909 -12.948320 13.340944 -17.400156 5.864897 0.000000 0.000000 0.000000 0.000000 0.000000 0.000000 20.631118 -42.011137 -6.884723 131.131847 55.925743 -165.013077 -157.127143 -65.952483 -115.568428 -119.109832 81.392348 149.028677 0.000000 0.000000 0.000000 0.000000 0.000000 0.000000 1.062076 -0.856525 21.706614 1.096785 2.185496 -0.185502 -0.646844 -0.125172 -3.135652 0.000000 0.000000 0.000000 0.603921 0.126310 21.161022 1.679474 1.614114 0.560966 -1.175160 -0.636196 -3.325736 0.000000 0.000000 0.000000
17.036422 69.284095 334.723046 -1.085449 -2.798153 -17.600356 0.333939 0.152943 17.532249 -0.432538 -1.183788 -0.082331 -0.556327 9.570146 -1.585888 0.000000 0.000000 0.000000 -4.675654 -2.009833 2.224890 -58.308934 -24.364324 -15.030363 -4.427157 11.753164 -13.349540 14.905136 -18.976013 8.577521 0.000000 0.000000 0.000000 0.000000 0.000000 0.000000 19.156363 -35.922313 -8.634409 132.856478 62.724025 -161.714220 -169.289706 -55.772579 -135.266761 -139.317802 66.728128 173.133064 0.000000 0.000000 0.000000 0.000000 0.000000 0.000000 0.977432 0.498280 18.040875 1.545973 2.775884 -0.032525 -1.869121 -1.015020 -0.237491 0.000000 0.000000 0.000000 0.728260 0.621778 17.571151 1.841415 2.584336 0.500823 -1.989761 -1.022987 -0.277039 0.000000 0.000000 0.000000
16.758328 69.098849 335.528132 -1.364049 -4.426452 -12.973192 0.635594 -0.156739 12.855225 -0.433036 -1.445238 -0.087877 1.821994 9.754382 -1.187338 0.000000 0.000000 0.000000 -4.102225 -2.165323 2.818167 -58.368428 -23.425804 -12.465974 -3.579072 12.154052 -13.327034 14.652956 -20.233530 9.220785 0.000000 0.000000 0.000000 0.000000 0.000000 0.000000 17.896038 -26.945293 -11.516220 123.537410 74.682227 -147.649284 -172.918314 -54.255492 -145.805041 -135.801528 61.355142 160.341914 0.000000 0.000000 0.000000 0.000000 0.000000 0.000000 0.804343 2.600931 13.270487 2.068665 3.812980 0.119848 -3.608612 -2.962411 3.875750 0.000000 0.000000 0.000000 0.868717 1.636913 12.919205 1.761483 3.958689 0.341346 -3.167134 -2.184686 4.082508 0.000000 0.000000 0.000000
16.548116 68.836130 336.756062 -1.462941 -6.790241 -7.973352 0.818907 -0.594822 7.792783 -0.417948 -1.280035 -0.079449 4.523802 9.990908 -0.859580 0.000000 0.000000 0.000000 -3.071058 -2.492655 3.441444 -59.246455 -21.983185 -10.109540 -2.479468 11.769283 -11.938935 12.392846 -20.751150 6.799655 0.000000 0.000000 0.000000 0.000000 0.000000 0.000000 17.468327 -16.145108 -15.183002 31.189127 83.958221 -50.182676 -168.151024 -53.618061 -146.572828 -131.805913 64.144033 152.758913 0.000000 0.000000 0.000000 0.000000 0.000000 0.000000 0.787672 5.537614 8.101269 2.455241 5.358589 0.213627 -5.528172 -6.010562 8.560912 0.000000 0.000000 0.000000 1.001446 3.571985 7.888944 1.587021 5.374222 0.144960 -4.579790 -4.117930 9.053896 0.000000 0.000000 0.000000
16.452451 68.543260 338.258767 -1.362187 -9.556202 -3.166857 0.867992 -1.105352 2.932118 -0.327795 -1.020536 -0.063470 7.044020 11.018919 -0.873277 0.000000 0.000000 0.000000 -1.720950 -2.693285 4.006524 -60.233817 -20.422639 -7.312175 -2.697286 11.205974 -11.059852 10.788569 -20.671263 4.340273 0.000000 0.000000 0.000000 0.000000 0.000000 0.000000 17.921690 -3.752771 -19.644617 -18.428346 64.876947 4.651973 -149.329711 -63.008458 -129.514694 -22.553817 64.809246 20.267705 0.000000 0.000000 0.000000 0.000000 0.000000 0.000000 0.846572 9.615060 2.981788 2.840034 6.412875 0.431908 -7.207075 -9.686994 12.661218 0.000000 0.000000 0.000000 1.154021 6.038179 3.038130 1.587568 6.825687 -0.034350 -5.944134 -6.626661 13.426642 0.000000 0.000000 0.000000
16.493083 68.195355 339.795285 -0.986470 -12.670633 0.905202 0.739960 -1.706230 -1.149859 -0.248038 -0.657458 -0.044849 10.052151 11.606055 -0.935233 0.000000 0.000000 0.000000 -0.204620 -2.729905 4.506993 -62.852033 -19.224005 -5.092482 -0.930372 10.802647 -9.032346 5.902721 -20.784765 -1.017224 0.000000 0.000000 0.000000 0.000000 0.000000 0.000000 19.388770 8.398758 -24.704893 -23.086828 40.395912 14.481536 -95.236028 -68.907147 -75.085212 0.703411 12.524109 -20.121667 0.000000 0.000000 0.000000 0.000000 0.000000 0.000000 1.214385 12.651145 -1.149350 2.856938 9.071210 0.182971 -8.564018 -14.039463 16.803292 0.000000 0.000000 0.000000 1.347043 9.238181 -1.066861 1.614080 7.808763 -0.178471 -7.297751 -9.498254 17.774939 0.000000 0.000000 0.000000
16.576728 67.750923 341.411805 -0.534219 -15.946291 3.849063 0.589315 -2.040013 -4.066305 -0.158978 -0.234597 -0.031253 13.013858 11.735813 -1.037600 0.000000 0.000000 0.000000 1.555213 -2.640942 4.791763 -66.731312 -18.035863 -4.276856 -0.237829 9.662130 -6.401550 1.916880 -20.670703 -5.845083 0.000000 0.000000 0.000000 0.000000 0.000000 0.000000 21.410121 17.783075 -29.589684 -23.289930 18.526177 19.163728 -131.537812 -60.437029 -128.580821 6.759743 33.836012 -4.802789 0.000000 0.000000 0.000000 0.000000 0.000000 0.000000 1.652873 15.871371 -4.154308 2.549066 11.396695 -0.127113 -9.350797 -18.325201 20.349956 0.000000 0.000000 0.000000 1.933209 13.155016 -4.087558 1.388131 8.109352 -0.320510 -8.353707 -12.470553 21.425174 0.000000 0.000000 0.000000
16.621673 67.178494 342.748469 0.016236 -18.973224 5.513331 0.364034 -2.071598 -5.635007 -0.089340 0.199275 -0.025448 15.598002 11.727371 -1.243580 0.000000 0.000000 0.000000 3.521081 -2.612434 4.828682 -70.967403 -17.166988 -4.030936 -0.816360 8.441308 -4.560960 0.165029 -22.763380 -7.193045 0.000000 0.000000 0.000000 0.000000 0.000000 0.000000 21.765213 26.115107 -31.443407 -20.517392 1.259883 21.126862 -130.875162 -55.080463 -142.618947 1.663459 45.600893 9.385349 0.000000 0.000000 0.000000 0.000000 0.000000 0.000000 3.200867 19.047142 -6.195098 0.867432 12.971799 -0.477971 -9.604509 -22.169210 22.712816 0.000000 0.000000 0.000000 2.631714 17.220607 -5.874105 1.167560 7.645911 -0.366991 -9.237825 -15.046366 23.711588 0.000000 0.000000 0.000000
16.520528 66.531846 343.772055 0.433159 -21.591177 6.849012 0.194624 -1.772556 -6.869371 -0.052871 0.430111 -0.025323 18.274148 11.338781 -1.483231 0.000000 0.000000 0.000000 5.340591 -2.843181 4.810684 -75.404897 -16.521749 -4.389951 -0.133117 7.298742 -2.251546 -1.700979 -22.507577 -9.763919 0.000000 0.000000 0.000000 0.000000 0.000000 0.000000 20.884754 29.901582 -30.942187 -19.184002 -8.000473 22.795550 -127.466246 -51.190773 -156.713537 -13.770685 52.160466 32.262503 0.000000 0.000000 0.000000 0.000000 0.000000 0.000000 4.555396 21.288621 -7.851933 -0.474163 14.558471 -0.852873 -9.690021 -25.213403 24.765750 0.000000 0.000000 0.000000 3.816600 21.088757 -7.506976 0.805993 6.488981 -0.351076 -10.036422 -16.874918 25.617604 0.000000 0.000000 0.000000
16.331106 65.892210 344.293036 0.775623 -23.390338 6.785921 0.012960 -1.385319 -6.688603 -0.051171 0.666213 -0.026142 20.607625 10.076018 -1.348405 0.000000 0.000000 0.000000 6.849259 -3.197489 4.714946 -79.557741 -15.720245 -5.981088 2.155769 5.243319 1.855280 -5.924838 -20.771299 -14.490050 0.000000 0.000000 0.000000 0.000000 0.000000 0.000000 18.654534 29.994843 -28.066518 -18.960883 -9.229823 23.571107 -124.632658 -49.440142 -171.182873 -32.600776 50.191758 56.396728 0.000000 0.000000 0.000000 0.000000 0.000000 0.000000 5.719783 22.425919 -8.065897 -2.202852 15.632696 -1.249315 -9.348492 -26.917191 25.760802 0.000000 0.000000 0.000000 4.655107 24.445498 -7.761567 0.463082 4.621587 -0.237127 -10.641842 -17.726991 26.286383 0.000000 0.000000 0.000000
